<svg xmlns="http://www.w3.org/2000/svg" viewBox="0 0 500 500"><g id="freepik--background-complete--inject-15"><rect x="58.73" y="294.42" width="26.48" height="11.19" style="fill:#ebebeb"></rect><rect x="43.96" y="308.53" width="26.48" height="11.19" style="fill:#ebebeb"></rect><rect x="73.5" y="308.53" width="26.48" height="11.19" style="fill:#ebebeb"></rect><rect x="414.79" y="308.53" width="26.48" height="11.19" style="fill:#ebebeb"></rect><rect x="414.79" y="42.58" width="26.48" height="11.19" style="fill:#ebebeb"></rect><rect x="429.56" y="56.69" width="26.48" height="11.19" style="fill:#ebebeb"></rect><rect x="43.96" y="42.59" width="26.48" height="11.19" style="fill:#ebebeb"></rect><rect x="327.4" y="122.83" width="26.48" height="11.19" transform="translate(681.29 256.85) rotate(180)" style="fill:#ebebeb"></rect><rect x="342.18" y="108.72" width="26.48" height="11.19" transform="translate(710.83 228.64) rotate(180)" style="fill:#ebebeb"></rect><path d="M43.09,67.88H208V283.37H43.09Zm160.54,4.34H47.44V279H203.63Z" style="fill:#ebebeb"></path><rect x="125.05" y="73.36" width="4.35" height="207.84" style="fill:#ebebeb"></rect><rect x="39.15" y="76.66" width="172.77" height="6.05" transform="translate(251.07 159.38) rotate(180)" style="fill:#ebebeb"></rect><rect x="39.15" y="83.48" width="172.77" height="6.05" transform="translate(251.07 173.01) rotate(180)" style="fill:#ebebeb"></rect><rect x="39.15" y="90.29" width="172.77" height="6.05" transform="translate(251.07 186.63) rotate(180)" style="fill:#ebebeb"></rect><rect x="39.15" y="97.1" width="172.77" height="6.05" transform="translate(251.07 200.25) rotate(180)" style="fill:#ebebeb"></rect><rect x="39.15" y="103.91" width="172.77" height="6.05" transform="translate(251.07 213.87) rotate(180)" style="fill:#ebebeb"></rect><rect x="39.15" y="110.72" width="172.77" height="6.05" transform="translate(251.07 227.5) rotate(180)" style="fill:#ebebeb"></rect><rect x="39.15" y="117.53" width="172.77" height="6.05" transform="translate(251.07 241.12) rotate(180)" style="fill:#ebebeb"></rect><rect x="39.15" y="124.34" width="172.77" height="6.05" transform="translate(251.07 254.74) rotate(180)" style="fill:#ebebeb"></rect><rect x="39.15" y="131.15" width="172.77" height="6.05" transform="translate(251.07 268.36) rotate(180)" style="fill:#ebebeb"></rect><rect x="52.06" y="75.44" width="1.09" height="139.55" style="fill:#263238"></rect><polygon points="50.67 220.05 54.53 220.05 53.56 214.51 51.64 214.51 50.67 220.05" style="fill:#263238"></polygon><rect x="48.14" y="75.44" width="1.09" height="201.88" style="fill:#263238"></rect><polygon points="46.76 281.39 50.62 281.39 49.65 275.85 47.73 275.85 46.76 281.39" style="fill:#263238"></polygon><rect x="32.4" y="67.03" width="186.26" height="12.67" transform="translate(251.07 146.72) rotate(180)" style="fill:#dbdbdb"></rect><path d="M416.91,205s-24.21-3.39-18.55-32.62C398.36,172.4,425.41,178.48,416.91,205Z" style="fill:#dbdbdb"></path><path d="M415.69,198.92q-.72-2.22-1.65-4.36c0-.19-.05-.37-.06-.55,0-.4-.07-.81-.1-1.21-.07-.87-.13-1.74-.18-2.62-.1-1.74-.21-3.49-.24-5.24,0-.09-.15-.09-.15,0,0,1.75,0,3.49,0,5.24,0,.88.08,1.75.14,2.62,0,.2,0,.39,0,.58a52.17,52.17,0,0,0-4.85-8.3c-.83-1.16-1.71-2.28-2.65-3.35s-2-2.16-3-3.25c-.06-.07-.17,0-.1.1a43.39,43.39,0,0,1,4.66,6.21c.74,1.11,1.43,2.25,2.1,3.41l-.23-.08-.86-.35q-1-.39-2-.75l-3.89-1.45c-.08,0-.13.11-.06.14,1.29.51,2.56,1.05,3.84,1.6l1.87.81.95.39a3,3,0,0,0,.64.22c.49.88,1,1.76,1.42,2.66a62.74,62.74,0,0,1,2.95,7l.18.5a14.47,14.47,0,0,0-2-1c-.83-.39-1.67-.76-2.5-1.14-1.7-.78-3.39-1.57-5-2.49a.07.07,0,1,0-.07.13c1.66.9,3.29,1.87,5,2.78.83.45,1.67.89,2.52,1.3a7.94,7.94,0,0,0,2.27.91,28.46,28.46,0,0,1,1.59,6.87c.27,3.3.24,6.63.32,9.95,0,.05.08.05.09,0,.24-3,.37-6,.39-9.05A26.35,26.35,0,0,0,415.69,198.92Z" style="fill:#a6a6a6"></path><path d="M412,181.73a28.69,28.69,0,0,0-.24,5.16s.07,0,.07,0c.1-1.71.12-3.41.31-5.11C412.11,181.67,412,181.64,412,181.73Z" style="fill:#a6a6a6"></path><path d="M405,183.19a18.65,18.65,0,0,1-3.11-1.52c-.08-.06-.16.07-.08.12A12,12,0,0,0,405,183.3C405.06,183.31,405.1,183.22,405,183.19Z" style="fill:#a6a6a6"></path><path d="M417.68,251.41c0-2.67-.07-5.35-.1-8-.05-8.89-.12-17.77-.28-26.65q-.19-10.59-.49-21.16a.11.11,0,0,0-.06-.09c0-1.93,0-3.85,0-5.78,0-.05,0-.07-.11-.07s-.12,0-.12.08l0,5.78s-.06.05-.06.09c-.35,12.55-.67,25.1-.75,37.66,0,2.55,0,5.1,0,7.65q-.14,12.28-.09,24.56c0,1.3,0,2.61,0,3.91,0,7.49.07,15,.08,22.46,0,.41.44.61.92.63s1.12-.2,1.12-.66c0-8.26.06-16.51.06-24.77C417.7,261.82,417.72,256.62,417.68,251.41Z" style="fill:#a6a6a6"></path><path d="M407.57,243.28s-11.64-8.62-22.69-2.79-12.78,28.3-12.78,28.3,16.22,2.32,26.44-7.41C408.39,252,407.57,243.28,407.57,243.28Z" style="fill:#ebebeb"></path><path d="M410.75,243.82a13.83,13.83,0,0,0-6.75-.88,8.44,8.44,0,0,0-1.42-.14l-1.65-.13c-1.13-.08-2.26-.15-3.39-.24-2.3-.17-4.6-.31-6.89-.54-.09,0-.1.14,0,.15,2.27.29,4.53.61,6.8.84,1.17.12,2.34.24,3.52.32l.85.09c-.35.07-.69.16-1,.25a27.47,27.47,0,0,0-5.28,2.15c-.92.16-1.83.42-2.73.63-1.44.34-2.87.71-4.31,1.09-2.82.74-5.62,1.57-8.43,2.39-.09,0,0,.16.05.14,2.8-.69,5.62-1.32,8.43-2,1.36-.32,2.73-.64,4.09-1l1.07-.25a34.17,34.17,0,0,0-8.27,7.2,44.72,44.72,0,0,0-5.75,9.07c-.05.08.07.16.12.08a44.2,44.2,0,0,1,7-9.14l-.15.47c-.22.68-.43,1.37-.65,2.06-.43,1.37-.87,2.74-1.28,4.11a.08.08,0,0,0,.15,0c.49-1.33.95-2.67,1.42-4l.69-2c.12-.34.24-.68.35-1l.12-.31a39.11,39.11,0,0,1,4.12-3.52,31.63,31.63,0,0,1,6.19-3.55q-.06.31-.12.6c-.12.53-.24,1.06-.34,1.59-.23,1.1-.45,2.21-.66,3.31-.44,2.26-.71,4.54-1.13,6.79a.07.07,0,1,0,.14,0c.52-2.27,1.19-4.5,1.7-6.77.25-1.13.51-2.27.74-3.41l.33-1.6a8.72,8.72,0,0,0,.16-.89l.63-.26c3.06-1.13,6.43-1.95,9.69-1.32a9.48,9.48,0,0,1,7,5.61c.1.25.5.1.45-.16A9,9,0,0,0,410.75,243.82Z" style="fill:#a6a6a6"></path><path d="M392.92,253.41c-.33,1.48-.65,3-1,4.43a31.62,31.62,0,0,0-.81,4.3c0,.06.07.06.09,0a32,32,0,0,0,1-4.33c.29-1.46.57-2.92.86-4.37C393.08,253.36,392.94,253.32,392.92,253.41Z" style="fill:#a6a6a6"></path><path d="M381.66,257.16c-1.48.75-2.92,1.61-4.47,2.23-.09,0,0,.18.06.13a46.79,46.79,0,0,0,4.45-2.3S381.7,257.14,381.66,257.16Z" style="fill:#a6a6a6"></path><path d="M410.19,227.44s-14.23.91-20.85-8.47-5.13-22.79-5.13-22.79,15,1.82,20.88,8.56S410.19,227.44,410.19,227.44Z" style="fill:#ebebeb"></path><path d="M416.87,241.48c-.49-1.52-1.1-3-1.68-4.52s-1.14-2.86-1.77-4.26a90.46,90.46,0,0,0-4.26-8.39c-1-1.73-2.08-3.4-3.19-5.06,0-.25-.07-.5-.11-.76-.07-.44-.13-.88-.2-1.32-.14-.9-.3-1.8-.45-2.7-.33-2-.73-3.91-1-5.88,0-.09-.16-.09-.14,0,.28,1.94.48,3.9.75,5.84.13,1,.26,1.91.4,2.86.06.35.11.69.17,1a103.6,103.6,0,0,0-7-9.13c-.34-.4-.7-.78-1-1.17,0-.11-.09-.21-.13-.32-.11-.27-.21-.54-.31-.82-.21-.56-.42-1.13-.62-1.69-.4-1.12-.76-2.24-1.06-3.39,0-.09-.16-.05-.14,0,.29,1.17.59,2.34.93,3.49.17.56.35,1.11.54,1.66l.11.27c-1.82-2-3.72-3.89-5.64-5.78-.06-.07-.17,0-.1.11A101.41,101.41,0,0,1,400.93,214a10.3,10.3,0,0,0-1.06-.27c-1.09-.21-2.2-.37-3.31-.51-2.31-.29-4.63-.59-6.94-.95-.09,0-.13.13,0,.14,2.2.44,4.39.93,6.58,1.44,1,.24,2.07.44,3.11.64a21,21,0,0,1,2.5.71c.23.33.47.66.69,1,1,1.52,2,3.07,3,4.63l-1.45-.28c-1.1-.21-2.2-.41-3.31-.59-2.17-.36-4.34-.74-6.49-1.23-.09,0-.12.12,0,.15,2.17.51,4.33,1.1,6.49,1.68,1,.28,2.09.53,3.15.76.52.12,1.05.24,1.58.34a3.18,3.18,0,0,0,.64.11q3.12,5.07,5.83,10.35c.8,1.54,1.56,3.11,2.3,4.68s1.41,3.27,2.12,4.91C416.47,242,417,241.84,416.87,241.48Z" style="fill:#a6a6a6"></path><path d="M402.31,208.78c-.28-1.36-.56-2.71-.86-4.07,0-.09-.16-.05-.14,0,.27,1.33.52,2.67.76,4s.44,2.68.81,4c0,0,.05,0,0,0A27.77,27.77,0,0,0,402.31,208.78Z" style="fill:#a6a6a6"></path><path d="M394,208.38c-.66-.33-1.35-.59-2-.86l-1.08-.42-.55-.22a2.69,2.69,0,0,1-.6-.27c-.11-.08-.18.11-.07.13a2.31,2.31,0,0,1,.61.25l.54.24,1,.46a17.29,17.29,0,0,0,2.1.83C394,208.55,394.08,208.42,394,208.38Z" style="fill:#a6a6a6"></path><path d="M424.76,216.25s8.61-16.09,21.71-18.58,21.13,11,21.13,11S458,220.87,446,223,424.76,216.25,424.76,216.25Z" style="fill:#ebebeb"></path><path d="M455.25,204.88A35.36,35.36,0,0,0,445,205l.58-.32c1-.49,1.94-1,2.91-1.5,2-1,4-2.16,6.15-3a.07.07,0,1,0-.06-.13c-2.05.95-4.17,1.75-6.23,2.7-1,.47-2,1-3,1.49-.64.35-1.36.67-2,1.08A35.84,35.84,0,0,0,435,208.1c.54-.6,1.09-1.19,1.64-1.79,1.22-1.34,2.42-2.74,3.76-4,.07-.06,0-.16-.11-.1-1.37,1.25-2.82,2.4-4.15,3.69q-1,.94-1.86,1.95c-.3.34-.6.68-.89,1a34.5,34.5,0,0,0-17.56,23.72c0,.09.11.14.14,0a39.54,39.54,0,0,1,9.63-16.3,37.78,37.78,0,0,1,17.55-10.16,38.67,38.67,0,0,1,12.12-1.1C455.41,205.15,455.42,204.91,455.25,204.88Z" style="fill:#a6a6a6"></path><path d="M467.6,208.66S458,220.87,446,223c-9.17,1.63-16.71-3.16-19.78-5.51l-.66-1.09s6.2-5.23,17.94-8.25S467.6,208.66,467.6,208.66Z" style="fill:#dbdbdb"></path><path d="M447.65,199.15a29.84,29.84,0,0,0-2.91,1.92,18.5,18.5,0,0,0-2.53,2.31.08.08,0,0,0,.11.11c.87-.76,1.74-1.51,2.65-2.23a28.26,28.26,0,0,1,2.75-2A.07.07,0,1,0,447.65,199.15Z" style="fill:#a6a6a6"></path><path d="M454.84,201.87c-.49.2-1,.38-1.47.58l-1.46.6c-.1,0-.05.22,0,.17l1.46-.59,1.46-.62C455,202,454.92,201.83,454.84,201.87Z" style="fill:#a6a6a6"></path><path d="M423,236.5s2.3,16,14.3,21.54S464,258,464,258,458.22,223.51,423,236.5Z" style="fill:#ebebeb"></path><path d="M455.7,247.66c-1.1-.13-2.2-.32-3.3-.52-.54-.09-1.08-.2-1.61-.3l-.84-.17c-.33-.3-.65-.61-1-.9a48,48,0,0,0-7.34-5.32,41.31,41.31,0,0,0-4.39-2.26h.22l4,.17c2.64.12,5.27.18,7.9.35.1,0,.09-.14,0-.15-2.64-.17-5.27-.47-7.91-.69l-3.84-.34-2-.18-.5-.05c-.69-.26-1.38-.5-2.07-.71a18.73,18.73,0,0,0-10.17-.56c-3,.77-6,2.75-6.81,5.93,0,.11.14.19.19.08,1.13-2.66,4.08-4,6.74-4.56a16,16,0,0,1,5.44-.1,12.68,12.68,0,0,0,.6,2.41c.33,1.12.66,2.25,1,3.37.68,2.24,1.43,4.46,2.1,6.71,0,.09.16,0,.14,0-.56-2.24-1-4.5-1.57-6.74-.27-1.1-.54-2.2-.82-3.3a18.17,18.17,0,0,0-.6-2.27,27,27,0,0,1,3.11.73,44.94,44.94,0,0,1,5.44,2c.18,1.13.43,2.26.69,3.38.33,1.41.7,2.81,1.14,4.18a.07.07,0,0,0,.14,0l-.06-.26h0c-.27-1.31-.56-2.61-.83-3.91-.22-1-.43-2.11-.65-3.16q2.24,1,4.37,2.22c0,.32.11.66.15,1,.09.55.19,1.1.29,1.64.23,1.23.47,2.46.77,3.68a56.34,56.34,0,0,0,2.06,6.94.07.07,0,0,0,0,.09l.07.08c.05.06.14,0,.12-.08-.55-2.36-1.19-4.71-1.71-7.08-.26-1.19-.52-2.37-.76-3.56-.12-.59-.22-1.19-.34-1.79,0-.16-.05-.35-.08-.53a48,48,0,0,1,4.67,3.12,50.37,50.37,0,0,1,7.16,6.53c.08.09.25,0,.17-.15a43.09,43.09,0,0,0-2.86-3.49c-.6-.64-1.23-1.27-1.87-1.88l.2,0c.56.1,1.13.18,1.69.26,1.11.15,2.23.26,3.34.38C455.76,247.81,455.8,247.67,455.7,247.66Z" style="fill:#a6a6a6"></path><path d="M447.27,253.07h0c0-.14,0-.28-.07-.41s-.12-.35-.14-.53h0c-.25-1.07-.45-2.14-.65-3.22,0-.08-.13,0-.13,0a13.21,13.21,0,0,0,.92,4.16s.09,0,.08,0Z" style="fill:#a6a6a6"></path><path d="M437.23,252.81a.08.08,0,0,0-.08-.06c-.33-1.42-.66-2.83-.95-4.25-.15-.75-.31-1.5-.45-2.25-.08-.4-.15-.81-.22-1.21a4.07,4.07,0,0,0-.26-1c0-.05-.13,0-.14,0a7.14,7.14,0,0,0,.3,2.14c.15.78.3,1.56.47,2.33.35,1.58.75,3.15,1.19,4.7,0,.08.17.06.16,0S437.23,252.93,437.23,252.81Z" style="fill:#a6a6a6"></path><path d="M454.61,243.06c-2.19-.3-4.38-.62-6.58-.88-.09,0-.13.13,0,.14,2.18.32,4.38.6,6.57.89C454.67,243.22,454.7,243.07,454.61,243.06Z" style="fill:#a6a6a6"></path><path d="M416.89,199.07s-7.34-32.22,27.27-45.25C444.16,153.82,453.75,196.22,416.89,199.07Z" style="fill:#ebebeb"></path><path d="M424.36,180.8l.38-.23,1.95-1.09,4-2.25c2.64-1.47,5.25-3,7.91-4.46.08,0,0-.17-.08-.12-2.67,1.45-5.38,2.8-8.06,4.22l-4,2.1-1.62.85c1.16-2.19,2.39-4.33,3.75-6.4,1.81-2.76,3.79-5.39,5.85-8a.12.12,0,1,0-.17-.16,54.72,54.72,0,0,0-8,9.81c0-.11,0-.23,0-.34,0-.8.06-1.6.07-2.4,0-1.57,0-3.15,0-4.72,0-.09-.14-.09-.14,0-.07,1.55-.25,3.09-.34,4.64-.05.77-.08,1.55-.1,2.32,0,.42-.05.89,0,1.35-.71,1.13-1.4,2.28-2,3.45a59.46,59.46,0,0,0-3.1,6.49c0-.8-.08-1.61-.13-2.41-.1-1.76-.32-3.52-.39-5.28,0-.1-.15-.09-.15,0,0,1.77,0,3.53,0,5.3,0,.88.06,1.76.11,2.64l.06,1a58.28,58.28,0,0,0-2.61,8.86,96.48,96.48,0,0,0-1.29,9.72,0,0,0,1,0,0,0,52.65,52.65,0,0,1,1.83-8.67c.43-1.52.88-3,1.37-4.53,1.44-.68,2.82-1.53,4.21-2.3l4.35-2.38c2.88-1.58,5.77-3.19,8.75-4.59.08,0,0-.17-.08-.13-3,1.37-6.06,2.67-9,4.16-1.48.74-2.93,1.53-4.37,2.34-1.2.68-2.44,1.36-3.58,2.13.33-1,.68-2,1.07-3A85.76,85.76,0,0,1,424.36,180.8Z" style="fill:#a6a6a6"></path><path d="M421.45,173.43c0-.09-.16-.09-.15,0,.12,1.84.18,3.67.38,5.51,0,.1.17.1.16,0C421.78,177.1,421.58,175.27,421.45,173.43Z" style="fill:#a6a6a6"></path><path d="M438,179.59c-2.17.87-4.35,1.7-6.51,2.6-.06,0,0,.12,0,.1,2.19-.82,4.35-1.71,6.52-2.56C438.17,179.69,438.13,179.55,438,179.59Z" style="fill:#a6a6a6"></path><path d="M441.33,164.73a56.73,56.73,0,0,0-6.15,3.3.09.09,0,0,0,.09.16c2-1.18,4.05-2.3,6.14-3.34C441.49,164.81,441.42,164.69,441.33,164.73Z" style="fill:#a6a6a6"></path><rect x="390.89" y="268.73" width="49.92" height="52.62" style="fill:#c7c7c7"></rect><rect x="387.45" y="287.35" width="2.55" height="90.13" style="fill:#a6a6a6"></rect><rect x="441.42" y="287.35" width="2.55" height="90.13" style="fill:#a6a6a6"></rect><rect x="415.8" y="287.35" width="2.55" height="90.13" style="fill:#a6a6a6"></rect><rect x="388.73" y="317.98" width="53.97" height="7.29" style="fill:#a6a6a6"></rect></g><g id="freepik--Floor--inject-15"><polygon points="31.22 377.48 85.91 377.24 140.61 377.15 250 376.98 359.39 377.15 414.09 377.23 468.78 377.48 414.09 377.72 359.39 377.81 250 377.98 140.61 377.81 85.91 377.72 31.22 377.48" style="fill:#263238"></polygon></g><g id="freepik--Shadow--inject-15"><ellipse cx="250" cy="416.45" rx="214.86" ry="20.23" style="fill:#ebebeb"></ellipse></g><g id="freepik--light-bulb--inject-15"><path d="M301.26,201.73c0,3.7,5.89,6.81,5.89,13.84,0,3.6-2.73,10.61-10.91,10.61s-10.91-7-10.91-10.61c0-7,5.89-10.14,5.89-13.84,0-3.22-4.05-6.15-4.05-6.15h-37V154.94s2.93-4,6.15-4c3.7,0,6.81,5.89,13.84,5.89,3.6,0,10.61-2.73,10.61-10.91s-7-10.91-10.61-10.91c-7,0-10.14,5.89-13.84,5.89-3.22,0-6.15-4-6.15-4V96.93c54.18,0,96.47,43.68,96.47,90.7q0,4.06-.36,8h-41S301.26,198.51,301.26,201.73Z" style="fill:#2763E4"></path><path d="M219.56,235.74c0,8.18,7,10.91,10.62,10.91,7,0,10.14-5.89,13.84-5.89,3.22,0,6.14,4,6.14,4V339h-37s4.29-33.34-12.48-58c-9.75-14.36-42.85-42.77-46.61-85.37h43.89s4-2.92,4-6.14c0-3.7-5.89-6.81-5.89-13.84,0-3.6,2.73-10.62,10.91-10.62s10.91,7,10.91,10.62c0,7-5.89,10.14-5.89,13.84,0,3.22,4,6.14,4,6.14h34.1v31.1s-2.92,4-6.14,4c-3.7,0-6.81-5.89-13.84-5.89C226.58,224.83,219.56,227.56,219.56,235.74Z" style="fill:#2763E4"></path><path d="M280.76,145.88c0,8.18-7,10.91-10.61,10.91-7,0-10.14-5.89-13.84-5.89-3.22,0-6.15,4-6.15,4v40.64h-34.1s-4-2.92-4-6.14c0-3.7,5.89-6.81,5.89-13.84,0-3.6-2.73-10.62-10.91-10.62s-10.91,7-10.91,10.62c0,7,5.89,10.14,5.89,13.84,0,3.22-4,6.14-4,6.14H154.05q-.36-3.89-.36-8c0-47,42.29-90.7,96.47-90.7v39.89s2.93,4,6.15,4c3.7,0,6.81-5.89,13.84-5.89C273.75,135,280.76,137.7,280.76,145.88Z" style="fill:#2763E4"></path><path d="M280.76,145.88c0,8.18-7,10.91-10.61,10.91-7,0-10.14-5.89-13.84-5.89-3.22,0-6.15,4-6.15,4v40.64h-34.1s-4-2.92-4-6.14c0-3.7,5.89-6.81,5.89-13.84,0-3.6-2.73-10.62-10.91-10.62s-10.91,7-10.91,10.62c0,7,5.89,10.14,5.89,13.84,0,3.22-4,6.14-4,6.14H154.05q-.36-3.89-.36-8c0-47,42.29-90.7,96.47-90.7v39.89s2.93,4,6.15,4c3.7,0,6.81-5.89,13.84-5.89C273.75,135,280.76,137.7,280.76,145.88Z" style="opacity:0.1"></path><rect x="204.41" y="338.99" width="91.5" height="14.21" style="fill:#455a64"></rect><rect x="204.41" y="355.72" width="91.5" height="14.21" style="fill:#455a64"></rect><rect x="218.69" y="372.46" width="62.95" height="14.21" style="fill:#455a64"></rect></g><g id="freepik--character-2--inject-15"><path d="M325,418.87c1.77.59,52.21.44,54.14-.78.72-.45,1.13-7.81,1.37-16.7.05-1.92.09-3.9.12-5.92,0-2.39.07-4.8.09-7.15.06-10.53-.09-19.81-.09-19.81H347.83l0,19.81v7.15l.17,5.92s-19.29,8.7-21.25,10.27S323.28,418.29,325,418.87Z" style="fill: rgb(247, 169, 160);"></path><path d="M325,418.87c1.77.59,52.21.44,54.14-.78.72-.45,1.13-7.81,1.37-16.7.05-1.92.09-3.9.12-5.92,0-2.39.07-4.8.09-7.15H347.85v7.15l.17,5.92s-19.29,8.7-21.25,10.27S323.28,418.29,325,418.87Z" style="fill:#fff"></path><path d="M324.89,419c1.15.38,22.63.45,38.28.13,3.62-.08,6.93-.18,9.6-.29,3.68-.17,6.15-.37,6.56-.63.88-.57,1.31-11.36,1.51-22.75h-33l.17,5.95s-19.39,8.75-21.37,10.32S323.12,418.35,324.89,419Z" style="fill:#2763E4"></path><path d="M325.61,416.92c8.5-.24,42.82-.38,51.24,0,.07,0,.07.05,0,.05-8.42.42-42.74.28-51.24.05C325.43,417.05,325.43,416.92,325.61,416.92Z" style="fill:#263238"></path><path d="M346.8,399.48c3.34-.63,7.43-.13,10,2.24.1.1,0,.24-.14.2a47.21,47.21,0,0,0-9.85-2A.21.21,0,0,1,346.8,399.48Z" style="fill:#263238"></path><path d="M344.38,400.94c3.35-.63,7.44-.13,10,2.25.1.09,0,.23-.14.2a46,46,0,0,0-9.85-2A.22.22,0,0,1,344.38,400.94Z" style="fill:#263238"></path><path d="M342,402.41c3.35-.64,7.44-.14,10,2.24.1.09,0,.23-.15.2a47,47,0,0,0-9.84-2A.21.21,0,0,1,342,402.41Z" style="fill:#263238"></path><path d="M339.56,403.87c3.35-.64,7.44-.13,10,2.24.09.09,0,.23-.15.2a47.12,47.12,0,0,0-9.84-2A.21.21,0,0,1,339.56,403.87Z" style="fill:#263238"></path><path d="M342.11,396.52c2.37,1.83,5.45,2.58,8.22,3.59.28.11.51-.16.52-.42a.09.09,0,0,0,.08-.12,17.9,17.9,0,0,0-5.18-7.65c-1.4-1.17-3.85-2-5.16-.16S340.72,395.45,342.11,396.52Zm-.86-2.69c-.6-3.67,3.34-1.75,4.34-.85a18.9,18.9,0,0,1,1.78,1.91,53.85,53.85,0,0,1,3.12,4.4c-1.33-.58-2.69-1-4-1.57C344.84,397.08,341.58,395.85,341.25,393.83Z" style="fill:#263238"></path><path d="M362.09,394.44c-.82-2.08-3.39-1.91-5-1.13a17.77,17.77,0,0,0-6.92,6.12.08.08,0,0,0,0,.13.42.42,0,0,0,.41.54c2.93-.29,6.1-.24,8.85-1.43C361,398,362.86,396.41,362.09,394.44Zm-7.16,4.31c-1.44.18-2.88.28-4.31.52a52.74,52.74,0,0,1,4.12-3.49,19.47,19.47,0,0,1,2.2-1.4c1.19-.63,5.49-1.5,4,1.9C360.11,398.16,356.64,398.53,354.93,398.75Z" style="fill:#263238"></path><path d="M391.63,228.55s-10.66,87.79-10.87,88.9c0,.15-.05,66.83-.05,66.83H347.84s-1-55.81.37-68.84c1.73-16.61,12.63-86.89,12.63-86.89Z" style="fill: rgb(247, 169, 160);"></path><path d="M419,417.31c1.85-.2,47.74-21.14,49-23.05.47-.72-2.19-7.58-5.64-15.78-.74-1.77-1.44-3.64-2.33-5.45-1.11-2.27-2.24-4.53-3.37-6.7-4.84-9.43-9.29-17.16-9.29-17.16l-29.07,13.16,8.39,17.19,3.44,7.05,2.6,5.33s-14,15.88-15.12,18.11S417.19,417.5,419,417.31Z" style="fill: rgb(247, 169, 160);"></path><path d="M419,417.31c1.85-.2,47.74-21.14,49-23.05.47-.72-2.19-7.58-5.64-15.78-.74-1.77-1.44-3.64-2.33-5.45-1.11-2.27-2.24-4.53-3.37-6.7-9,4-21.91,9.68-30,13.19l3.44,7.05,2.6,5.33s-14,15.88-15.12,18.11S417.19,417.5,419,417.31Z" style="fill:#fff"></path><path d="M418.93,417.44c1.85-.2,48-21.26,49.26-23.18.58-.88-3.49-10.89-8-21.34l-30.06,13.61,2.61,5.35s-14.07,16-15.21,18.22S417.07,417.63,418.93,417.44Z" style="fill:#2763E4"></path><path d="M418.75,415.29c7.65-3.72,38.85-18,46.69-21.11.07,0,.09,0,0,.05-7.51,3.86-38.82,17.89-46.67,21.18C418.64,415.48,418.58,415.37,418.75,415.29Z" style="fill:#263238"></path><path d="M430.85,390.66c2.79-2,6.72-3.19,10-2.08.13,0,.07.23-.05.24A47.3,47.3,0,0,0,431,391,.22.22,0,0,1,430.85,390.66Z" style="fill:#263238"></path><path d="M429.26,393c2.78-2,6.72-3.19,10-2.08.13,0,.06.22-.05.24a46.38,46.38,0,0,0-9.8,2.22A.22.22,0,0,1,429.26,393Z" style="fill:#263238"></path><path d="M427.67,395.32c2.78-2,6.72-3.19,10-2.09.13,0,.07.23,0,.24a47.26,47.26,0,0,0-9.81,2.23A.21.21,0,0,1,427.67,395.32Z" style="fill:#263238"></path><path d="M426.07,397.64c2.79-1.95,6.73-3.19,10-2.08.13,0,.07.23-.05.24a48,48,0,0,0-9.8,2.22A.22.22,0,0,1,426.07,397.64Z" style="fill:#263238"></path><path d="M425.36,389.9c2.92.69,6,.1,9-.12a.41.41,0,0,0,.3-.6c.05,0,.08-.09,0-.14a17.93,17.93,0,0,0-7.87-4.83c-1.76-.49-4.33-.21-4.77,2S423.66,389.5,425.36,389.9Zm-1.89-2.09c-2.06-3.1,2.32-3,3.6-2.57a17.53,17.53,0,0,1,2.41,1,52.91,52.91,0,0,1,4.66,2.72c-1.45,0-2.88.16-4.33.23C428.08,389.28,424.6,389.51,423.47,387.81Z" style="fill:#263238"></path><path d="M442.7,379.76c-1.6-1.56-3.88-.34-5.05,1.05a17.92,17.92,0,0,0-3.79,8.43c0,.07.05.1.1.1.06.25.33.48.59.33,2.55-1.48,5.46-2.74,7.48-5C443.21,383.42,444.22,381.24,442.7,379.76ZM438,386.64c-1.24.76-2.5,1.45-3.71,2.25a51.66,51.66,0,0,1,2.32-4.87,18.64,18.64,0,0,1,1.42-2.19c.83-1.06,4.38-3.63,4.42.09C442.44,384,439.43,385.74,438,386.64Z" style="fill:#263238"></path><path d="M360.84,228.55s2.38,12.68,11.23,19.13c0,0,19.51,65.28,22,72.77,4.37,12.9,31.4,56.59,31.4,56.59l29.9-13.19S428.32,314.4,425,309.06c-1.66-2.72-14.33-55.42-14.15-56.78,2.18-16.22-5.52-23.81-5.52-23.81Z" style="fill: rgb(247, 169, 160);"></path><path d="M360.84,228.55h45.67a34.72,34.72,0,0,1,5.24,23.79s13.14,52.19,14.54,55.56,8.56,14.73,8.56,14.73C389.11,351.85,347.49,338,347.49,338s0-13,.66-24.56C348.35,309.89,360.84,228.55,360.84,228.55Z" style="fill:#263238"></path><path d="M364.08,236.85a.41.41,0,1,1-.82,0,.41.41,0,0,1,.82,0Zm6.78-.41a.41.41,0,0,0-.41.41.41.41,0,1,0,.82,0A.41.41,0,0,0,370.86,236.44Zm7.19,0a.41.41,0,0,0-.41.41.41.41,0,1,0,.82,0A.41.41,0,0,0,378.05,236.44Zm7.19,0a.41.41,0,0,0-.41.41.41.41,0,1,0,.82,0A.41.41,0,0,0,385.24,236.44Zm7.19,0a.41.41,0,0,0-.41.41.41.41,0,1,0,.82,0A.41.41,0,0,0,392.43,236.44Zm7.19,0a.41.41,0,0,0-.41.41.41.41,0,1,0,.82,0A.41.41,0,0,0,399.62,236.44Zm7.19,0a.41.41,0,0,0-.41.41.41.41,0,1,0,.82,0A.41.41,0,0,0,406.81,236.44Zm-46.45-4.74c0,.21-.07.44-.11.68a.4.4,0,0,0,.24-.37A.44.44,0,0,0,360.36,231.7Zm6.9-.1a.41.41,0,1,0,.42.41A.41.41,0,0,0,367.26,231.6Zm7.19,0a.41.41,0,1,0,.42.41A.41.41,0,0,0,374.45,231.6Zm7.19,0a.41.41,0,1,0,.42.41A.41.41,0,0,0,381.64,231.6Zm7.19,0a.41.41,0,1,0,.42.41A.41.41,0,0,0,388.83,231.6Zm7.19,0a.41.41,0,1,0,.42.41A.41.41,0,0,0,396,231.6Zm7.19,0a.41.41,0,1,0,.42.41A.41.41,0,0,0,403.21,231.6Zm-39.54,14.68a.41.41,0,0,0-.41.42.41.41,0,0,0,.82,0A.41.41,0,0,0,363.67,246.28Zm7.19,0a.41.41,0,0,0-.41.42.41.41,0,0,0,.82,0A.41.41,0,0,0,370.86,246.28Zm7.19,0a.41.41,0,0,0-.41.42.41.41,0,0,0,.82,0A.41.41,0,0,0,378.05,246.28Zm7.19,0a.41.41,0,0,0-.41.42.41.41,0,0,0,.82,0A.41.41,0,0,0,385.24,246.28Zm7.19,0a.41.41,0,0,0-.41.42.41.41,0,0,0,.82,0A.41.41,0,0,0,392.43,246.28Zm7.19,0a.41.41,0,0,0-.41.42.41.41,0,0,0,.82,0A.41.41,0,0,0,399.62,246.28Zm7.19,0a.41.41,0,0,0-.41.42.41.41,0,0,0,.82,0A.41.41,0,0,0,406.81,246.28Zm-46.73-4.84a.42.42,0,1,0,.41.42A.42.42,0,0,0,360.08,241.44Zm7.18,0a.42.42,0,1,0,.42.42A.42.42,0,0,0,367.26,241.44Zm7.19,0a.42.42,0,1,0,.42.42A.42.42,0,0,0,374.45,241.44Zm7.19,0a.42.42,0,1,0,.42.42A.42.42,0,0,0,381.64,241.44Zm7.19,0a.42.42,0,1,0,.42.42A.42.42,0,0,0,388.83,241.44Zm7.19,0a.42.42,0,1,0,.42.42A.42.42,0,0,0,396,241.44Zm7.19,0a.42.42,0,1,0,.42.42A.42.42,0,0,0,403.21,241.44Zm7.19,0a.42.42,0,1,0,.42.42A.42.42,0,0,0,410.4,241.44Zm-53.78,14.72-.12.79a.41.41,0,0,0,.39-.41A.39.39,0,0,0,356.62,256.16Zm7.05,0a.41.41,0,0,0-.41.41.41.41,0,1,0,.82,0A.41.41,0,0,0,363.67,256.13Zm7.19,0a.41.41,0,0,0-.41.41.41.41,0,1,0,.82,0A.41.41,0,0,0,370.86,256.13Zm7.19,0a.41.41,0,0,0-.41.41.41.41,0,1,0,.82,0A.41.41,0,0,0,378.05,256.13Zm7.19,0a.41.41,0,0,0-.41.41.41.41,0,1,0,.82,0A.41.41,0,0,0,385.24,256.13Zm7.19,0a.41.41,0,0,0-.41.41.41.41,0,1,0,.82,0A.41.41,0,0,0,392.43,256.13Zm7.19,0a.41.41,0,0,0-.41.41.41.41,0,1,0,.82,0A.41.41,0,0,0,399.62,256.13Zm7.19,0a.41.41,0,0,0-.41.41.41.41,0,1,0,.82,0A.41.41,0,0,0,406.81,256.13Zm-46.73-4.84a.41.41,0,1,0,.41.41A.41.41,0,0,0,360.08,251.29Zm7.18,0a.41.41,0,1,0,.42.41A.41.41,0,0,0,367.26,251.29Zm7.19,0a.41.41,0,1,0,.42.41A.41.41,0,0,0,374.45,251.29Zm7.19,0a.41.41,0,1,0,.42.41A.41.41,0,0,0,381.64,251.29Zm7.19,0a.41.41,0,1,0,.42.41A.41.41,0,0,0,388.83,251.29Zm7.19,0a.41.41,0,1,0,.42.41A.41.41,0,0,0,396,251.29Zm7.19,0a.41.41,0,1,0,.42.41A.41.41,0,0,0,403.21,251.29Zm7.19,0a.41.41,0,1,0,.42.41A.41.41,0,0,0,410.4,251.29ZM356.48,266a.41.41,0,0,0-.41.42.41.41,0,0,0,.82,0A.41.41,0,0,0,356.48,266Zm7.19,0a.41.41,0,0,0-.41.42.41.41,0,0,0,.82,0A.41.41,0,0,0,363.67,266Zm7.19,0a.41.41,0,0,0-.41.42.41.41,0,0,0,.82,0A.41.41,0,0,0,370.86,266Zm7.19,0a.41.41,0,0,0-.41.42.41.41,0,0,0,.82,0A.41.41,0,0,0,378.05,266Zm7.19,0a.41.41,0,0,0-.41.42.41.41,0,0,0,.82,0A.41.41,0,0,0,385.24,266Zm7.19,0a.41.41,0,0,0-.41.42.41.41,0,0,0,.82,0A.41.41,0,0,0,392.43,266Zm7.19,0a.41.41,0,0,0-.41.42.41.41,0,0,0,.82,0A.41.41,0,0,0,399.62,266Zm7.19,0a.41.41,0,0,0-.41.42.41.41,0,1,0,.82,0A.41.41,0,0,0,406.81,266Zm7.19,0a.41.41,0,0,0-.41.42.41.41,0,0,0,.82,0A.41.41,0,0,0,414,266Zm-53.92-4.84a.42.42,0,0,0-.42.42.42.42,0,0,0,.83,0A.42.42,0,0,0,360.08,261.13Zm7.18,0a.42.42,0,0,0-.41.42.42.42,0,0,0,.83,0A.42.42,0,0,0,367.26,261.13Zm7.19,0a.42.42,0,0,0-.41.42.42.42,0,0,0,.83,0A.42.42,0,0,0,374.45,261.13Zm7.19,0a.42.42,0,0,0-.41.42.42.42,0,0,0,.83,0A.42.42,0,0,0,381.64,261.13Zm7.19,0a.42.42,0,0,0-.41.42.42.42,0,0,0,.83,0A.42.42,0,0,0,388.83,261.13Zm7.19,0a.42.42,0,0,0-.41.42.42.42,0,0,0,.83,0A.42.42,0,0,0,396,261.13Zm7.19,0a.42.42,0,0,0-.41.42.42.42,0,0,0,.83,0A.42.42,0,0,0,403.21,261.13Zm7.19,0a.42.42,0,0,0-.41.42.42.42,0,0,0,.83,0A.42.42,0,0,0,410.4,261.13Zm-53.92,14.69a.42.42,0,1,0,.41.41A.41.41,0,0,0,356.48,275.82Zm7.19,0a.42.42,0,1,0,.41.41A.41.41,0,0,0,363.67,275.82Zm7.19,0a.42.42,0,1,0,.41.41A.41.41,0,0,0,370.86,275.82Zm7.19,0a.42.42,0,1,0,.41.41A.41.41,0,0,0,378.05,275.82Zm7.19,0a.42.42,0,1,0,.41.41A.41.41,0,0,0,385.24,275.82Zm7.19,0a.42.42,0,1,0,.41.41A.41.41,0,0,0,392.43,275.82Zm7.19,0a.42.42,0,1,0,.41.41A.41.41,0,0,0,399.62,275.82Zm7.19,0a.42.42,0,1,0,.41.41A.41.41,0,0,0,406.81,275.82Zm7.19,0a.42.42,0,1,0,.41.41A.41.41,0,0,0,414,275.82ZM360.08,271a.41.41,0,0,0-.42.41.42.42,0,1,0,.83,0A.41.41,0,0,0,360.08,271Zm7.18,0a.41.41,0,0,0-.41.41.42.42,0,1,0,.83,0A.41.41,0,0,0,367.26,271Zm7.19,0a.41.41,0,0,0-.41.41.42.42,0,1,0,.83,0A.41.41,0,0,0,374.45,271Zm7.19,0a.41.41,0,0,0-.41.41.42.42,0,1,0,.83,0A.41.41,0,0,0,381.64,271Zm7.19,0a.41.41,0,0,0-.41.41.42.42,0,1,0,.83,0A.41.41,0,0,0,388.83,271Zm7.19,0a.41.41,0,0,0-.41.41.42.42,0,1,0,.83,0A.41.41,0,0,0,396,271Zm7.19,0a.41.41,0,0,0-.41.41.42.42,0,1,0,.83,0A.41.41,0,0,0,403.21,271Zm7.19,0a.41.41,0,0,0-.41.41.42.42,0,1,0,.83,0A.41.41,0,0,0,410.4,271Zm-53.92,14.69a.41.41,0,1,0,.41.41A.41.41,0,0,0,356.48,285.67Zm7.19,0a.41.41,0,1,0,.41.41A.41.41,0,0,0,363.67,285.67Zm7.19,0a.41.41,0,1,0,.41.41A.41.41,0,0,0,370.86,285.67Zm7.19,0a.41.41,0,1,0,.41.41A.41.41,0,0,0,378.05,285.67Zm7.19,0a.41.41,0,1,0,.41.41A.41.41,0,0,0,385.24,285.67Zm7.19,0a.41.41,0,1,0,.41.41A.41.41,0,0,0,392.43,285.67Zm7.19,0a.41.41,0,1,0,.41.41A.41.41,0,0,0,399.62,285.67Zm7.19,0a.41.41,0,1,0,.41.41A.41.41,0,0,0,406.81,285.67Zm7.19,0a.41.41,0,1,0,.41.41A.41.41,0,0,0,414,285.67Zm-61.11-4.85h0l-.12.81.13,0a.42.42,0,0,0,0-.83Zm7.19,0a.42.42,0,0,0-.42.42.42.42,0,0,0,.83,0A.42.42,0,0,0,360.08,280.82Zm7.18,0a.42.42,0,0,0-.41.42.42.42,0,0,0,.83,0A.42.42,0,0,0,367.26,280.82Zm7.19,0a.42.42,0,0,0-.41.42.42.42,0,0,0,.83,0A.42.42,0,0,0,374.45,280.82Zm7.19,0a.42.42,0,0,0-.41.42.42.42,0,0,0,.83,0A.42.42,0,0,0,381.64,280.82Zm7.19,0a.42.42,0,0,0-.41.42.42.42,0,0,0,.83,0A.42.42,0,0,0,388.83,280.82Zm7.19,0a.42.42,0,0,0-.41.42.42.42,0,0,0,.83,0A.42.42,0,0,0,396,280.82Zm7.19,0a.42.42,0,0,0-.41.42.42.42,0,0,0,.83,0A.42.42,0,0,0,403.21,280.82Zm7.19,0a.42.42,0,0,0-.41.42.42.42,0,0,0,.83,0A.42.42,0,0,0,410.4,280.82Zm7.19,0a.42.42,0,0,0-.41.42.42.42,0,0,0,.83,0A.42.42,0,0,0,417.59,280.82Zm-61.11,14.69a.42.42,0,1,0,.41.41A.41.41,0,0,0,356.48,295.51Zm7.19,0a.42.42,0,1,0,.41.41A.41.41,0,0,0,363.67,295.51Zm7.19,0a.42.42,0,1,0,.41.41A.41.41,0,0,0,370.86,295.51Zm7.19,0a.42.42,0,1,0,.41.41A.41.41,0,0,0,378.05,295.51Zm7.19,0a.42.42,0,1,0,.41.41A.41.41,0,0,0,385.24,295.51Zm7.19,0a.42.42,0,1,0,.41.41A.41.41,0,0,0,392.43,295.51Zm7.19,0a.42.42,0,1,0,.41.41A.41.41,0,0,0,399.62,295.51Zm7.19,0a.42.42,0,1,0,.41.41A.41.41,0,0,0,406.81,295.51Zm7.19,0a.42.42,0,1,0,.41.41A.41.41,0,0,0,414,295.51Zm7.19,0a.42.42,0,1,0,0,.83.42.42,0,0,0,0-.83Zm-68.3-4.84a.41.41,0,0,0-.42.41.42.42,0,1,0,.83,0A.41.41,0,0,0,352.89,290.67Zm7.19,0a.41.41,0,0,0-.42.41.42.42,0,1,0,.83,0A.41.41,0,0,0,360.08,290.67Zm7.18,0a.41.41,0,0,0-.41.41.42.42,0,1,0,.83,0A.41.41,0,0,0,367.26,290.67Zm7.19,0a.41.41,0,0,0-.41.41.42.42,0,1,0,.83,0A.41.41,0,0,0,374.45,290.67Zm7.19,0a.41.41,0,0,0-.41.41.42.42,0,1,0,.83,0A.41.41,0,0,0,381.64,290.67Zm7.19,0a.41.41,0,0,0-.41.41.42.42,0,1,0,.83,0A.41.41,0,0,0,388.83,290.67Zm7.19,0a.41.41,0,0,0-.41.41.42.42,0,1,0,.83,0A.41.41,0,0,0,396,290.67Zm7.19,0a.41.41,0,0,0-.41.41.42.42,0,1,0,.83,0A.41.41,0,0,0,403.21,290.67Zm7.19,0a.41.41,0,0,0-.41.41.42.42,0,1,0,.83,0A.41.41,0,0,0,410.4,290.67Zm7.19,0a.41.41,0,0,0-.41.41.42.42,0,1,0,.83,0A.41.41,0,0,0,417.59,290.67Zm-68.3,14.68h-.05q-.06.4-.12.78h0a.47.47,0,0,0,.17,0,.41.41,0,0,0,.41-.41A.41.41,0,0,0,349.29,305.35Zm7.19,0a.41.41,0,1,0,.41.41A.41.41,0,0,0,356.48,305.36Zm7.19,0a.41.41,0,1,0,.41.41A.41.41,0,0,0,363.67,305.36Zm7.19,0a.41.41,0,1,0,.41.41A.41.41,0,0,0,370.86,305.36Zm7.19,0a.41.41,0,1,0,.41.41A.41.41,0,0,0,378.05,305.36Zm7.19,0a.41.41,0,1,0,.41.41A.41.41,0,0,0,385.24,305.36Zm7.19,0a.41.41,0,1,0,.41.41A.41.41,0,0,0,392.43,305.36Zm7.19,0a.41.41,0,1,0,.41.41A.41.41,0,0,0,399.62,305.36Zm7.19,0a.41.41,0,1,0,.41.41A.41.41,0,0,0,406.81,305.36Zm7.19,0a.41.41,0,1,0,.41.41A.41.41,0,0,0,414,305.36Zm7.19,0a.41.41,0,1,0,0,.82.41.41,0,1,0,0-.82Zm-68.3-4.85a.42.42,0,0,0-.42.42.42.42,0,0,0,.83,0A.42.42,0,0,0,352.89,300.51Zm7.19,0a.42.42,0,0,0-.42.42.42.42,0,0,0,.83,0A.42.42,0,0,0,360.08,300.51Zm7.18,0a.42.42,0,0,0-.41.42.42.42,0,0,0,.83,0A.42.42,0,0,0,367.26,300.51Zm7.19,0a.42.42,0,0,0-.41.42.42.42,0,0,0,.83,0A.42.42,0,0,0,374.45,300.51Zm7.19,0a.42.42,0,0,0-.41.42.42.42,0,0,0,.83,0A.42.42,0,0,0,381.64,300.51Zm7.19,0a.42.42,0,0,0-.41.42.42.42,0,0,0,.83,0A.42.42,0,0,0,388.83,300.51Zm7.19,0a.42.42,0,0,0-.41.42.42.42,0,0,0,.83,0A.42.42,0,0,0,396,300.51Zm7.19,0a.42.42,0,0,0-.41.42.42.42,0,0,0,.83,0A.42.42,0,0,0,403.21,300.51Zm7.19,0a.42.42,0,0,0-.41.42.42.42,0,0,0,.83,0A.42.42,0,0,0,410.4,300.51Zm7.19,0a.42.42,0,0,0-.41.42.42.42,0,0,0,.83,0A.42.42,0,0,0,417.59,300.51Zm-68.3,14.69a.42.42,0,1,0,.41.42A.41.41,0,0,0,349.29,315.2Zm7.19,0a.42.42,0,1,0,.41.42A.41.41,0,0,0,356.48,315.2Zm7.19,0a.42.42,0,1,0,.41.42A.41.41,0,0,0,363.67,315.2Zm7.19,0a.42.42,0,1,0,.41.42A.41.41,0,0,0,370.86,315.2Zm7.19,0a.42.42,0,1,0,.41.42A.41.41,0,0,0,378.05,315.2Zm7.19,0a.42.42,0,1,0,.41.42A.41.41,0,0,0,385.24,315.2Zm7.19,0a.42.42,0,1,0,.41.42A.41.41,0,0,0,392.43,315.2Zm7.19,0a.42.42,0,1,0,.41.42A.41.41,0,0,0,399.62,315.2Zm7.19,0a.42.42,0,1,0,.41.42A.41.41,0,0,0,406.81,315.2Zm7.19,0a.42.42,0,1,0,.41.42A.41.41,0,0,0,414,315.2Zm7.19,0a.42.42,0,1,0,0,.83.42.42,0,0,0,0-.83Zm7.19,0a.42.42,0,1,0,0,.83.42.42,0,0,0,0-.83Zm-75.49-4.84a.42.42,0,1,0,.41.41A.42.42,0,0,0,352.89,310.36Zm7.19,0a.42.42,0,1,0,.41.41A.42.42,0,0,0,360.08,310.36Zm7.18,0a.42.42,0,1,0,.42.41A.42.42,0,0,0,367.26,310.36Zm7.19,0a.42.42,0,1,0,.42.41A.42.42,0,0,0,374.45,310.36Zm7.19,0a.42.42,0,1,0,.42.41A.42.42,0,0,0,381.64,310.36Zm7.19,0a.42.42,0,1,0,.42.41A.42.42,0,0,0,388.83,310.36Zm7.19,0a.42.42,0,1,0,.42.41A.42.42,0,0,0,396,310.36Zm7.19,0a.42.42,0,1,0,.42.41A.42.42,0,0,0,403.21,310.36Zm7.19,0a.42.42,0,1,0,.42.41A.42.42,0,0,0,410.4,310.36Zm7.19,0a.42.42,0,1,0,.42.41A.42.42,0,0,0,417.59,310.36Zm7.19,0a.42.42,0,1,0,.42.41A.42.42,0,0,0,424.78,310.36Zm-75.49,14.69a.41.41,0,1,0,.41.41A.41.41,0,0,0,349.29,325.05Zm7.19,0a.41.41,0,1,0,.41.41A.41.41,0,0,0,356.48,325.05Zm7.19,0a.41.41,0,1,0,.41.41A.41.41,0,0,0,363.67,325.05Zm7.19,0a.41.41,0,1,0,.41.41A.41.41,0,0,0,370.86,325.05Zm7.19,0a.41.41,0,1,0,.41.41A.41.41,0,0,0,378.05,325.05Zm7.19,0a.41.41,0,1,0,.41.41A.41.41,0,0,0,385.24,325.05Zm7.19,0a.41.41,0,1,0,.41.41A.41.41,0,0,0,392.43,325.05Zm7.19,0a.41.41,0,1,0,.41.41A.41.41,0,0,0,399.62,325.05Zm7.19,0a.41.41,0,1,0,.41.41A.41.41,0,0,0,406.81,325.05Zm7.19,0a.41.41,0,1,0,.41.41A.41.41,0,0,0,414,325.05Zm7.19,0a.41.41,0,1,0,0,.82.41.41,0,1,0,0-.82Zm7.19,0a.41.41,0,1,0,0,.82.41.41,0,1,0,0-.82Zm-75.49-4.84a.41.41,0,1,0,.41.41A.41.41,0,0,0,352.89,320.21Zm7.19,0a.41.41,0,1,0,.41.41A.41.41,0,0,0,360.08,320.21Zm7.18,0a.41.41,0,1,0,.42.41A.41.41,0,0,0,367.26,320.21Zm7.19,0a.41.41,0,1,0,.42.41A.41.41,0,0,0,374.45,320.21Zm7.19,0a.41.41,0,1,0,.42.41A.41.41,0,0,0,381.64,320.21Zm7.19,0a.41.41,0,1,0,.42.41A.41.41,0,0,0,388.83,320.21Zm7.19,0a.41.41,0,1,0,.42.41A.41.41,0,0,0,396,320.21Zm7.19,0a.41.41,0,1,0,.42.41A.41.41,0,0,0,403.21,320.21Zm7.19,0a.41.41,0,1,0,.42.41A.41.41,0,0,0,410.4,320.21Zm7.19,0a.41.41,0,1,0,.42.41A.41.41,0,0,0,417.59,320.21Zm7.19,0a.41.41,0,1,0,.42.41A.41.41,0,0,0,424.78,320.21Zm7.19,0a.41.41,0,0,0,0,.82.41.41,0,1,0,0-.82Zm-82.68,14.68a.42.42,0,1,0,.41.42A.41.41,0,0,0,349.29,334.89Zm7.19,0a.42.42,0,1,0,.41.42A.41.41,0,0,0,356.48,334.89Zm7.19,0a.42.42,0,1,0,.41.42A.41.41,0,0,0,363.67,334.89Zm7.19,0a.42.42,0,1,0,.41.42A.41.41,0,0,0,370.86,334.89Zm7.19,0a.42.42,0,1,0,.41.42A.41.41,0,0,0,378.05,334.89Zm7.19,0a.42.42,0,1,0,.41.42A.41.41,0,0,0,385.24,334.89Zm7.19,0a.42.42,0,1,0,.41.42A.41.41,0,0,0,392.43,334.89Zm7.19,0a.42.42,0,1,0,.41.42A.41.41,0,0,0,399.62,334.89Zm7.19,0a.42.42,0,1,0,.41.42A.41.41,0,0,0,406.81,334.89Zm-53.92-4.84a.42.42,0,1,0,.41.41A.42.42,0,0,0,352.89,330.05Zm7.19,0a.42.42,0,1,0,.41.41A.42.42,0,0,0,360.08,330.05Zm7.18,0a.42.42,0,1,0,.42.41A.42.42,0,0,0,367.26,330.05Zm7.19,0a.42.42,0,1,0,.42.41A.42.42,0,0,0,374.45,330.05Zm7.19,0a.42.42,0,1,0,.42.41A.42.42,0,0,0,381.64,330.05Zm7.19,0a.42.42,0,1,0,.42.41A.42.42,0,0,0,388.83,330.05Zm7.19,0a.42.42,0,1,0,.42.41A.42.42,0,0,0,396,330.05Zm7.19,0a.42.42,0,1,0,.42.41A.42.42,0,0,0,403.21,330.05Zm7.19,0a.42.42,0,1,0,.42.41A.42.42,0,0,0,410.4,330.05Zm7.19,0a.42.42,0,1,0,.42.41A.42.42,0,0,0,417.59,330.05Zm-57.51,9.84a.42.42,0,0,0-.42.42.37.37,0,0,0,0,.15l.72.09a.41.41,0,0,0,.08-.24A.42.42,0,0,0,360.08,339.89Zm7.18,0a.41.41,0,1,0,.42.41A.41.41,0,0,0,367.26,339.9Zm7.19,0a.41.41,0,1,0,.42.41A.41.41,0,0,0,374.45,339.9Zm7.19,0a.41.41,0,1,0,.42.41A.41.41,0,0,0,381.64,339.9Zm7.19,0a.4.4,0,0,0-.37.25l.69-.1A.42.42,0,0,0,388.83,339.89Z" style="fill:#fff"></path><path d="M359.09,148.05c-7.26,6.21-5.24,15.28-8.27,20.2-1.85,3-7.88,6.19-9.08,9.65-2,5.7,2.85,7.74,1.77,10.84-1.53,4.38-7.4,4-8.45,11.22s6.83,14.8,25.57,16.87,29-4.79,29.7-10.88-5.57-8.11-6-12.66c-.27-2.9,3.58-4.92,3.77-10.27s-5-7.08-5.76-11.62,1.66-15.58-5-21.21S362.67,145,359.09,148.05Z" style="fill:#263238"></path><path d="M359.93,148.21a15.44,15.44,0,0,0-4.82,5.55,33.86,33.86,0,0,0-2.68,7.37,20.17,20.17,0,0,1-1.45,4.41,11.22,11.22,0,0,1-2.52,3.1c-2,1.84-4.44,3.23-6.26,5.29s-3.07,4.56-2.38,7.22a28.45,28.45,0,0,0,1.92,4c.56,1.28.79,2.87-.31,3.93-.94.91-2.29,1.32-3.36,2.07a11.84,11.84,0,0,0-2.73,2.65,9.2,9.2,0,0,0-1.73,7.2c1.11,5.83,6.57,9.15,11.62,11.23.71.3,1.41.58,2.12.86.11,0,.2-.11.09-.16-5.06-2.27-10.94-4.93-12.89-10.6a8.55,8.55,0,0,1,.87-7.52A11,11,0,0,1,338.1,192c1-.76,2.2-1.22,3.23-1.93a3.43,3.43,0,0,0,1.59-3.08,8.39,8.39,0,0,0-1.39-3.72,7,7,0,0,1-1.2-3.93,7.67,7.67,0,0,1,1.5-3.74c1.58-2.24,3.92-3.7,6-5.39a12.71,12.71,0,0,0,4.56-6.31c.39-1.34.63-2.71,1-4.06a36.65,36.65,0,0,1,1.12-3.7,17.59,17.59,0,0,1,4-6.53,9.88,9.88,0,0,1,1.55-1.27C360.05,148.27,360,148.17,359.93,148.21Z" style="fill:#263238"></path><path d="M391.16,201.49a7,7,0,0,0-1.3-2.73c-.65-.82-1.44-1.52-2.16-2.28a5.4,5.4,0,0,1-1.53-2.53,5.09,5.09,0,0,1,.82-3.38,25.1,25.1,0,0,0,1.68-3.26,11.6,11.6,0,0,0,.71-3.5,12,12,0,0,0-1.88-7c-.64-1-1.36-2-2-3.09a15.09,15.09,0,0,1-1.66-3.63c-.84-2.83-1-5.8-1.71-8.66a44.43,44.43,0,0,0-3.05-8.5c0-.06-.13,0-.09.06a39.44,39.44,0,0,1,2.66,7.68c.59,2.51.82,5.06,1.26,7.6a16.22,16.22,0,0,0,2.58,6.78c1.27,2.06,2.57,4.1,2.92,6.55a11.37,11.37,0,0,1-1.21,7c-1,1.86-2.36,3.92-1.5,6.1.73,1.84,2.49,2.95,3.66,4.48a7.43,7.43,0,0,1,1.27,5.92c-1,5.25-6.27,7.85-11.19,8.11a.12.12,0,0,0,0,.24c4.28-.05,8.93-1.93,10.94-5.94A9.06,9.06,0,0,0,391.16,201.49Z" style="fill:#263238"></path><path d="M374.28,185.12c-1.15,5.71-14,26.34-26.77,35-4.67,3.16-28.23,3.51-34.05,2.63-6.81-1-6.06-19.17-2.12-20.16,4.91-1.23,26.65.19,31.13-1.07,5.44-1.53,16-13.14,25.7-20.09C373.18,177.82,375.17,180.71,374.28,185.12Z" style="fill: rgb(247, 169, 160);"></path><path d="M359.07,216.57l.3,21.74S400,235.39,409,233.17c0,0-14.4-40-27.08-51.23-.29-.26-.58-.51-.86-.73-.06-.06-.12-.09-.17-.14-5.83-4.58-11.65-2.28-14.83,2.15-1.81,2.53-10.8,17.43-11,23.27C354.91,211.64,359.07,216.57,359.07,216.57Z" style="fill:#2763E4"></path><path d="M311.69,284.08C298.77,311,308,343.33,308,343.33l-36.62,5.49-13.95-93.15s-3.5-3.57-6.68-3.09c-3.66.55-5.86,6.84-12.81,7.88-3.56.53-10.91-1.13-12.12-9.22s5.32-11.83,8.89-12.36c6.94-1,10.89,4.32,14.55,3.77,3.19-.47,5.48-4.91,5.48-4.91L250.08,207l36.6-5.48s4.44,2.29,4.91,5.48c.55,3.66-4.81,7.61-3.77,14.55.53,3.57,4.27,10.1,12.36,8.89s9.75-8.56,9.22-12.12c-1-6.95-7.33-9.15-7.88-12.81-.47-3.18,3.09-6.68,3.09-6.68l40.52-6.07C347.72,235.43,319.2,268.43,311.69,284.08Z" style="fill:#2763E4"></path><path d="M311.69,284.08C298.77,311,308,343.33,308,343.33l-36.62,5.49-13.95-93.15s-3.5-3.57-6.68-3.09c-3.66.55-5.86,6.84-12.81,7.88-3.56.53-10.91-1.13-12.12-9.22s5.32-11.83,8.89-12.36c6.94-1,10.89,4.32,14.55,3.77,3.19-.47,5.48-4.91,5.48-4.91L250.08,207l36.6-5.48s4.44,2.29,4.91,5.48c.55,3.66-4.81,7.61-3.77,14.55.53,3.57,4.27,10.1,12.36,8.89s9.75-8.56,9.22-12.12c-1-6.95-7.33-9.15-7.88-12.81-.47-3.18,3.09-6.68,3.09-6.68l40.52-6.07C347.72,235.43,319.2,268.43,311.69,284.08Z" style="opacity:0.1"></path><path d="M384.18,189.69c.61,12.3,1,35.75-4.74,42.87-7.49,9.36-27.8,14.42-33.8,15.94-2.62.66-8.05-16.48-6.44-18.87s22.56-6.82,24.25-8.16,8.82-22,11.71-32.1C378.79,176.69,383.77,181.24,384.18,189.69Z" style="fill: rgb(247, 169, 160);"></path><path d="M323.59,235.53c-3.31.66-8.21-1.22-8.47,1.28-.23,2.23,3.29,3.19,3.29,3.19s-4.32.2-3.88,2.66S319,245.4,319,245.4s-4,.38-3.36,2.81,4.4,2.9,4.4,2.9-1,.71.17,2.23c1.71,2.17,7.71,2.16,10.83,1.41s14-5.81,15.68-6.62L342.11,228s-6.17-1.23-9.38-1.48-14,1.9-13.65,4.61,7.94,1.08,9.89,1.08,2.28.46,1.4,1.14A39.73,39.73,0,0,1,323.59,235.53Z" style="fill: rgb(247, 169, 160);"></path><path d="M318.6,240c5,1,7.37.57,12.06-1.23.09,0,.16.1.07.14-4.43,2.18-7.32,3.14-12.19,1.33C318.3,240.12,318.36,239.92,318.6,240Z" style="fill:#100e3a"></path><path d="M318.84,245.3c5.28.59,7.85.15,12.9-1.37a.06.06,0,0,1,0,.12c-4.83,1.91-7.73,2.8-12.93,1.52C318.61,245.52,318.59,245.28,318.84,245.3Z" style="fill:#100e3a"></path><path d="M320.14,251.08c5.16.19,8-.17,12.7-2.27.11-.05.2.1.09.16a17.06,17.06,0,0,1-12.78,2.26C319.83,251.18,319.81,251.06,320.14,251.08Z" style="fill:#100e3a"></path><path d="M311.56,221.68c1.42-2.17-1.95-2.59-1.95-2.59s5-.56,5.59-3.37-3.53-3.08-3.82-3.11c.26,0,4.85-.66,5.15-3.55s-3.85-2.66-4.12-2.63c.24-.11,3.39-1.6,3.12-3.84-.46-3.86-8.62-.27-11.5-1.53l1.54-4.79c0-.16.05-.33.06-.49l-2.41-.9a32.07,32.07,0,0,1-3.53,3.81c-1.54,1.53-3,3-3.38,4.31a2.83,2.83,0,0,0,1,3.24s-2.64.77-2.95,3c-.16,1.17,1.56,2.45,1.56,2.45a3.38,3.38,0,0,0-2.24,2.73c-.13,1.62,1.61,2.66,1.61,2.66s-1.69,1.61-1.28,3.3C294.83,223.83,308.53,226.34,311.56,221.68Z" style="fill: rgb(247, 169, 160);"></path><path d="M304,200.37l1.6-4.1c0-.16.05-.33.06-.49.57-5.59-4.55-10.65-6.1-6.93-1.18,2.83,1.79,7.11.16,9.84h0Z" style="fill: rgb(247, 169, 160);"></path><path d="M295.55,217.32s-.07,0,0,.06a24.1,24.1,0,0,0,14.26,1.75c.15,0,.16-.3,0-.29A49.44,49.44,0,0,1,295.55,217.32Z" style="fill:#263238"></path><path d="M295.85,211.74c-.05,0-.07.07,0,.09a22.63,22.63,0,0,0,15.68.94c.17-.06.28-.3.06-.24C308,213.43,300.2,212.92,295.85,211.74Z" style="fill:#263238"></path><path d="M312.73,206.18c-5.07,1.48-10.1,1.2-15.23.16-.07,0-.08.08,0,.11,2.37,1.19,5.71,1.51,8.33,1.54a14,14,0,0,0,7-1.63C312.87,206.31,312.84,206.15,312.73,206.18Z" style="fill:#263238"></path><path d="M366.91,182.21s-1.61,4.53.33,4.9,6.59-1.7,12.26-7C379.5,180.09,373.72,175.47,366.91,182.21Z" style="fill: rgb(247, 169, 160);"></path><path d="M376,180.34c-.2.81-4.14,6-7.83,5.76-1.2-.08-1.07-6.66-1.07-6.66L367,179l-1.42-6.82,8.08-5,1.16-.66s.27,1.9.57,4.26c0,.11,0,.22,0,.33s0,.26.05.39c.05.35.1.71.14,1.07s.07.54.09.83.06.57.09.85A45.37,45.37,0,0,1,376,180.34Z" style="fill: rgb(247, 169, 160);"></path><path d="M375.35,170.72A14,14,0,0,1,367,179l-1.42-6.82,8.08-5,1.16-.66S375.05,168.36,375.35,170.72Z" style="fill:#263238"></path><path d="M356.45,161.1c-1.3,12.17,5.84,14.33,8.46,14.61,2.39.25,10.53.81,13.09-11.16s-2.7-16.43-8.12-17.29S357.75,148.93,356.45,161.1Z" style="fill: rgb(247, 169, 160);"></path><path d="M358.89,159.3a8.17,8.17,0,0,0,.84-.14,1.4,1.4,0,0,0,.82-.31.45.45,0,0,0,0-.54,1.1,1.1,0,0,0-1.06-.29,1.57,1.57,0,0,0-1,.53A.46.46,0,0,0,358.89,159.3Z" style="fill:#263238"></path><path d="M366.86,160c-.29-.05-.54-.14-.82-.21a1.35,1.35,0,0,1-.8-.37.44.44,0,0,1,0-.53,1.11,1.11,0,0,1,1.08-.21,1.59,1.59,0,0,1,1,.6A.46.46,0,0,1,366.86,160Z" style="fill:#263238"></path><path d="M365.12,163s.06.05.06.08c-.08.83,0,1.79.71,2.12,0,0,0,0,0,0C365,165.1,364.91,163.82,365.12,163Z" style="fill:#263238"></path><path d="M365.91,162.22c1.35,0,1.29,2.67,0,2.69S364.79,162.24,365.91,162.22Z" style="fill:#263238"></path><path d="M366.44,162.37c.23.16.45.43.74.47s.58-.24.8-.51c0,0,0,0,0,0,0,.51-.21,1-.76,1.1s-.86-.4-1-.92C366.26,162.45,366.34,162.31,366.44,162.37Z" style="fill:#263238"></path><path d="M360.39,162.6s-.06,0-.06.07c0,.83-.11,1.79-.87,2.06,0,0,0,.05,0,.05C360.39,164.66,360.54,163.39,360.39,162.6Z" style="fill:#263238"></path><path d="M359.66,161.72c-1.34-.12-1.48,2.57-.24,2.68S360.78,161.82,359.66,161.72Z" style="fill:#263238"></path><path d="M359.09,161.87c-.22.13-.44.37-.7.38s-.49-.3-.67-.59c0,0,0,0,0,0,0,.51.1,1.05.59,1.18s.8-.31,1-.82C359.25,162,359.18,161.81,359.09,161.87Z" style="fill:#263238"></path><path d="M365.12,169.39c-.17.22-.34.51-.63.58a2.39,2.39,0,0,1-.92-.09s-.05,0,0,0a1.12,1.12,0,0,0,1.11.31.86.86,0,0,0,.55-.82S365.14,169.35,365.12,169.39Z" style="fill:#263238"></path><path d="M361.68,166.35s-.21,1.24-.23,1.82c0,.06.14.09.33.11h0a2.79,2.79,0,0,0,2.74-1s0-.11-.08-.08a4.3,4.3,0,0,1-2.58.65c0-.17.44-2.11.35-2.12a5.08,5.08,0,0,0-1.35.26c.37-2.6,1.15-5.11,1.48-7.7a.08.08,0,0,0-.15,0,42.87,42.87,0,0,0-1.94,8.22C360.22,166.84,361.44,166.44,361.68,166.35Z" style="fill:#263238"></path><path d="M361.88,168.05a3.38,3.38,0,0,0,1.26,1.18,1.51,1.51,0,0,0,.92.14c.68-.11.76-.73.68-1.26a3.84,3.84,0,0,0-.22-.83A4.41,4.41,0,0,1,361.88,168.05Z" style="fill:#263238"></path><path d="M363.14,169.23a1.51,1.51,0,0,0,.92.14c.68-.11.76-.73.68-1.26A1.58,1.58,0,0,0,363.14,169.23Z" style="fill:#ff9abb"></path><path d="M376.75,164.6c-2.79-.19-2.42-4.58-2.42-4.58s-3.14-.53-3-5.64a7.71,7.71,0,0,1-6.08,3.25c-.91.06,2.3-2,2.3-2s-3.89,3-10.54,1.24c-.47-.12.63-7.9,6.11-9.92s10.62.46,13.64,4.06c0,0,3.74,2.09,3.89,5.8S377.83,164.67,376.75,164.6Z" style="fill:#263238"></path><path d="M365.89,167.63a4,4,0,0,1-2.88-4.78h0a3.95,3.95,0,1,1,3.86,4.9A4.17,4.17,0,0,1,365.89,167.63ZM363.52,163a3.42,3.42,0,1,0,3.3-2.6A3.43,3.43,0,0,0,363.52,163Z" style="fill:#2763E4"></path><path d="M357.61,166.69c-1.61-.18-2.73-2.08-2.49-4.25a4.74,4.74,0,0,1,1.13-2.65,2.46,2.46,0,0,1,4.19.46,4.72,4.72,0,0,1,.52,2.84c-.22,2-1.58,3.6-3.09,3.61A1.11,1.11,0,0,1,357.61,166.69Zm-1-6.54a4.23,4.23,0,0,0-1,2.35c-.2,1.88.7,3.52,2,3.67s2.56-1.26,2.77-3.14a4.18,4.18,0,0,0-.46-2.51,2.09,2.09,0,0,0-1.56-1.15h-.2A2.18,2.18,0,0,0,356.64,160.15Z" style="fill:#2763E4"></path><path d="M363.09,163.32l.38-.36c-.54-.57-1.84-1.39-2.91-.48l.34.41C361.86,162.06,363,163.27,363.09,163.32Z" style="fill:#2763E4"></path><path d="M380.46,166.26l.5-.18c-.09-.23-.9-2.26-2-2.58s-8.18-.41-8.48-.42v.53c2,0,7.52.17,8.35.4S380.25,165.71,380.46,166.26Z" style="fill:#2763E4"></path><path d="M375.12,165.27s2.75-3.76,4.46-2.78-.41,6.49-2.46,7.2a2.07,2.07,0,0,1-2.75-1.16Z" style="fill: rgb(247, 169, 160);"></path><path d="M378.93,164.05a0,0,0,0,1,0,.06,5.25,5.25,0,0,0-2.77,3.22,1.15,1.15,0,0,1,1.72-.28s0,.08,0,.08a1.26,1.26,0,0,0-1.41.41,6.18,6.18,0,0,0-.7,1.12c-.06.13-.29.05-.24-.09v0C375.51,166.72,377,164.2,378.93,164.05Z" style="fill:#263238"></path></g><g id="freepik--speech-bubble--inject-15"><path d="M344.53,148a12.11,12.11,0,0,0,2.07-6.7c0-8.5-9.33-15.39-20.83-15.39S305,132.84,305,141.34s9.32,15.38,20.82,15.38a25,25,0,0,0,14.37-4.25l7.18,1.82Z" style="fill:#fff"></path><path d="M344.53,148a12.39,12.39,0,0,0,2-6.34,11.9,11.9,0,0,0-1.77-6.34,18.78,18.78,0,0,0-10.51-7.71,27.77,27.77,0,0,0-13.15-.84,21.76,21.76,0,0,0-11.69,5.75,13.57,13.57,0,0,0-3.4,5.49,11,11,0,0,0-.09,6.38,13.42,13.42,0,0,0,3.32,5.54,19.16,19.16,0,0,0,5.34,3.82,23.9,23.9,0,0,0,6.29,2.05,27.81,27.81,0,0,0,6.63.47,24.43,24.43,0,0,0,12.56-4l.09-.06.1,0,7.15,1.93-.14.17Zm0,0,2.9,6.2.1.23-.24-.06-7.21-1.72.19,0A24.79,24.79,0,0,1,327.49,157a26.87,26.87,0,0,1-13.35-2.44,20.24,20.24,0,0,1-5.61-4,14.24,14.24,0,0,1-3.58-5.92,11.89,11.89,0,0,1,.06-6.94,14.43,14.43,0,0,1,3.67-5.86A22.68,22.68,0,0,1,320.89,126a27.3,27.3,0,0,1,13.54,1,21.86,21.86,0,0,1,6.07,3.13,16.36,16.36,0,0,1,4.59,5,11.85,11.85,0,0,1-.56,12.9Z" style="fill:#263238"></path><path d="M318.28,141.34a2.16,2.16,0,1,1-2.16-2.16A2.16,2.16,0,0,1,318.28,141.34Z" style="fill:#263238"></path><path d="M327.93,141.34a2.16,2.16,0,1,1-2.16-2.16A2.16,2.16,0,0,1,327.93,141.34Z" style="fill:#263238"></path><path d="M337.59,141.34a2.16,2.16,0,1,1-2.16-2.16A2.16,2.16,0,0,1,337.59,141.34Z" style="fill:#263238"></path></g></svg>